<svg width="1339" height="176" viewBox="0 0 1339 176" fill="none" xmlns="http://www.w3.org/2000/svg">
<path d="M60.75 166.75V173C46.75 172.25 43 172 30.75 172C19 172 15.25 172.25 1.25 173V166.75C11.5 165.5 16.75 164.5 19.25 160C21 156.75 21.25 151.5 21.25 142.5V40.5C21.25 27.25 21.25 20 18.5 15.5C15.75 11.75 10.25 10.25 7.07805e-07 9.24999V3H63.75C109 3 130.5 21.75 130.5 50C130.5 82 99.5 103 53 103H40.5V142.75C40.5 151.5 40.75 157 42.5 160C45 164.5 50.25 165.5 60.75 166.75ZM40.5 11.25V93.75C45.75 94.25 50 94.75 55.5 94.75C90 94.75 110.5 78.25 110.5 52.5C110.5 28.75 94 11.25 60 11.25H40.5ZM227.711 175.5C178.211 175.5 148.461 136.25 148.461 90.25C148.461 46.75 176.211 0.249989 227.711 0.249989C280.461 0.249989 306.711 43.25 306.711 85.75C306.711 131.75 279.711 175.5 227.711 175.5ZM228.211 166.75C262.461 166.75 286.461 137 286.461 89.75C286.461 42.5 262.461 9 227.711 9C193.211 9 168.961 37.25 168.961 84.5C168.961 131.75 193.211 166.75 228.211 166.75ZM483.387 167V173C474.137 172.75 468.137 172.5 462.137 172.5C456.887 172.5 451.387 172.75 445.387 173L396.387 93.5C392.137 93.75 387.387 94 382.387 94H368.137V135.5C368.137 148.5 368.387 156 370.637 160C373.387 164.5 378.887 165.25 390.137 166.75V173C375.637 172.25 372.137 172 358.637 172C345.887 172 342.137 172.25 327.637 173V166.75C338.637 165.25 344.137 164.5 346.637 159.75C349.137 155.75 349.887 148.5 349.887 135.25V40.5C349.887 27.25 349.637 20 346.637 15.5C344.137 11.75 338.387 10.25 328.137 9.24999V3H391.387C435.887 3 458.637 17.25 458.637 44.5C458.637 67 443.387 83.75 414.637 90.5L446.387 139.25C462.387 163.5 469.887 165.5 483.387 167ZM368.137 11.25V84.25C373.387 85 378.887 85.5 384.637 85.5C424.387 85.5 438.887 70.25 438.887 48C438.887 25.25 422.387 11.25 388.637 11.25H368.137ZM485.264 55.5L488.514 3H625.764L629.014 55.5H622.014L608.014 12H566.514V142.75C566.514 151.5 566.764 157 568.514 160C571.014 164.5 576.264 165.5 586.764 166.75V173C572.764 172.25 569.014 172 557.014 172C545.014 172 541.264 172.25 527.264 173V166.75C537.514 165.5 543.014 164.5 545.264 160C547.264 156.75 547.514 151.5 547.514 142.5V12H506.264L492.264 55.5H485.264ZM645.264 3H764.764L767.264 46.25H760.514L747.014 11.75H684.514V84.75H708.264C734.514 84.75 734.014 81.5 738.764 61H745.264V117.25H738.764C734.014 97 734.514 93.5 708.264 93.5H684.514V142.75C684.514 151.5 684.764 157 686.514 160C689.014 164.5 694.264 165.5 704.764 166.75V173C690.764 172.25 687.014 172 674.764 172C663.014 172 659.264 172.25 645.264 173V166.75C655.514 165.5 660.764 164.5 663.264 160C665.014 156.75 665.264 151.5 665.264 142.5V40.75C665.264 26.25 665.014 18.75 662.014 14.5C659.264 11 654.264 10 645.264 9.24999V3ZM863.941 175.5C814.441 175.5 784.691 136.25 784.691 90.25C784.691 46.75 812.441 0.249989 863.941 0.249989C916.691 0.249989 942.941 43.25 942.941 85.75C942.941 131.75 915.941 175.5 863.941 175.5ZM864.441 166.75C898.691 166.75 922.691 137 922.691 89.75C922.691 42.5 898.691 9 863.941 9C829.441 9 805.191 37.25 805.191 84.5C805.191 131.75 829.441 166.75 864.441 166.75ZM1003.12 33.25V164.25H1063.62L1077.62 124.5H1084.37L1081.37 173H963.867V166.75C973.867 165.5 978.867 164.25 981.367 160C983.617 155.75 983.867 148.5 983.867 135.25V33.5C983.867 24.5 983.617 19.25 981.867 16C979.367 11.5 974.117 10.5 963.867 9.24999V3C977.867 3.74999 981.617 3.99999 993.367 3.99999C1005.62 3.99999 1009.37 3.74999 1023.37 3V9.24999C1012.87 10.5 1007.62 11.5 1005.12 16C1003.37 19 1003.12 24.5 1003.12 33.25ZM1139.59 33.25V142.75C1139.59 151.5 1139.84 157 1141.59 160C1144.09 164.5 1149.34 165.5 1159.84 166.75V173C1145.84 172.25 1142.09 172 1130.09 172C1118.09 172 1114.34 172.25 1100.34 173V166.75C1110.59 165.5 1115.84 164.5 1118.34 160C1120.09 156.75 1120.34 151.5 1120.34 142.5V33.5C1120.34 24.5 1120.09 19.25 1118.34 16C1115.84 11.5 1110.59 10.5 1100.34 9.24999V3C1114.34 3.74999 1118.09 3.99999 1130.09 3.99999C1142.09 3.99999 1145.84 3.74999 1159.84 3V9.24999C1149.34 10.5 1144.09 11.5 1141.59 16C1139.84 19 1139.59 24.5 1139.59 33.25ZM1259.94 175.5C1210.44 175.5 1180.69 136.25 1180.69 90.25C1180.69 46.75 1208.44 0.249989 1259.94 0.249989C1312.69 0.249989 1338.94 43.25 1338.94 85.75C1338.94 131.75 1311.94 175.5 1259.94 175.5ZM1260.44 166.75C1294.69 166.75 1318.69 137 1318.69 89.75C1318.69 42.5 1294.69 9 1259.94 9C1225.44 9 1201.19 37.25 1201.19 84.5C1201.19 131.75 1225.44 166.75 1260.44 166.75Z" fill="black"/>
</svg>
